<?xml version="1.0"?>
<svg width="141.732" height="141.732" xmlns="http://www.w3.org/2000/svg" xmlns:svg="http://www.w3.org/2000/svg">
 <g class="layer">
  <title>Layer 1</title>
  <path d="m108.32,108.32a5.4,5.4 0 0 1 -7.63,0l-0.01,-0.01l-30.52,-30.52l-30.53,30.53a5.4,5.4 0 0 1 -7.63,0a5.4,5.4 0 0 1 0,-7.63l30.52,-30.53l-30.54,-30.54a5.4,5.4 0 0 1 7.64,-7.64l30.54,30.55l30.53,-30.53a5.4,5.4 0 1 1 7.63,7.63l-30.53,30.53l30.53,30.53a5.4,5.4 0 0 1 0,7.63m11.45,11.45c27.39,-27.4 27.39,-71.82 0,-99.22c-27.4,-27.4 -71.82,-27.4 -99.22,0c-27.4,27.4 -27.4,71.82 0,99.22c27.4,27.4 71.82,27.39 99.22,0" fill="#fff" id="svg_1"/>
 </g>
</svg>