<?xml version="1.0"?>
<svg width="283.922" height="283.922" xmlns="http://www.w3.org/2000/svg" xmlns:svg="http://www.w3.org/2000/svg">
 <g class="layer">
  <title>Layer 1</title>
  <path d="m266.42,0l-68.59,0c-9.65,0 -17.5,7.85 -17.5,17.5c0,9.65 7.85,17.5 17.5,17.5l26.34,0l-92.37,92.37a17.38,17.38 0 0 0 -5.13,12.38c0,4.67 1.82,9.07 5.13,12.37a17.37,17.37 0 0 0 12.37,5.13c4.68,0 9.07,-1.82 12.38,-5.13l92.37,-92.37l0,26.37c0,9.65 7.85,17.5 17.5,17.5c9.65,0 17.5,-7.85 17.5,-17.5l0,-68.62c0,-9.65 -7.85,-17.5 -17.5,-17.5z" fill="#fff" id="svg_1"/>
  <path d="m201.14,253.92l-171.14,0l0,-171.14l72.13,0l30,-30l-117.13,0c-8.28,0 -15,6.72 -15,15l0,201.14c0,8.29 6.72,15 15,15l201.14,0c8.28,0 15,-6.71 15,-15l0,-126.98l-30,30l0,81.98z" fill="#fff" id="svg_2"/>
 </g>
</svg>