<?xml version="1.0"?>
<svg width="20" height="20" xmlns="http://www.w3.org/2000/svg" xmlns:svg="http://www.w3.org/2000/svg" version="1.1">
 <title/>
 <desc/>
 <g class="layer">
  <title>Layer 1</title>
  <g fill="none" fill-rule="evenodd" id="Page-1">
   <g fill="#fff" id="Core" transform="translate(-86.000000, -296.000000)">
    <g id="info-outline" transform="translate(86.000000, 296.000000)">
     <path d="m9,15l2,0l0,-6l-2,0l0,6l0,0zm1,-15c-5.5,0 -10,4.5 -10,10c0,5.5 4.5,10 10,10c5.5,0 10,-4.5 10,-10c0,-5.5 -4.5,-10 -10,-10l0,0zm0,18c-4.4,0 -8,-3.6 -8,-8c0,-4.4 3.6,-8 8,-8c4.4,0 8,3.6 8,8c0,4.4 -3.6,8 -8,8l0,0zm-1,-11l2,0l0,-2l-2,0l0,2l0,0z" id="Shape"/>
    </g>
   </g>
  </g>
 </g>
</svg>