<?xml version="1.0"?>
<svg width="973.125" height="1024" xmlns="http://www.w3.org/2000/svg" xmlns:svg="http://www.w3.org/2000/svg">
 <g class="layer">
  <title>Layer 1</title>
  <path d="m960,832l-249.12,-249.12c35.56,-58.07 57.12,-125.72 57.12,-198.88c0,-212.03 -172,-384 -384,-384c-212.03,0 -384,171.97 -384,384c0,212 171.97,384 384,384c73.16,0 140.81,-21.56 198.88,-57l249.12,249c17.5,17.5 46.5,17.38 64,0l64,-64c17.5,-17.5 17.5,-46.5 0,-64zm-576,-192c-141.37,0 -256,-114.62 -256,-256s114.63,-256 256,-256s256,114.63 256,256s-114.62,256 -256,256z" fill="#fff" id="svg_1"/>
 </g>
</svg>