<?xml version="1.0"?>
<svg width="512" height="512" xmlns="http://www.w3.org/2000/svg" xmlns:svg="http://www.w3.org/2000/svg">
 <g class="layer">
  <title>Layer 1</title>
  <path d="m160,153.3c0,3.7 -3,6.7 -6.7,6.7l-50.5,0c-3.7,0 -6.7,-3 -6.7,-6.7l0,-50.5c0,-3.7 3,-6.7 6.7,-6.7l50.5,0c3.7,0 6.7,3 6.7,6.7l0,50.5zm128,0c0,3.7 -3,6.7 -6.7,6.7l-50.5,0c-3.7,0 -6.7,-3 -6.7,-6.7l0,-50.5c0,-3.7 3,-6.7 6.7,-6.7l50.5,0c3.7,0 6.7,3 6.7,6.7l0,50.5zm128,0c0,3.7 -3,6.7 -6.7,6.7l-50.5,0c-3.7,0 -6.7,-3 -6.7,-6.7l0,-50.5c0,-3.7 3,-6.7 6.7,-6.7l50.5,0c3.7,0 6.7,3 6.7,6.7l0,50.5zm-256,128c0,3.7 -3,6.7 -6.7,6.7l-50.5,0c-3.7,0 -6.7,-3 -6.7,-6.7l0,-50.5c0,-3.7 3,-6.7 6.7,-6.7l50.5,0c3.7,0 6.7,3 6.7,6.7l0,50.5zm128,0c0,3.7 -3,6.7 -6.7,6.7l-50.5,0c-3.7,0 -6.7,-3 -6.7,-6.7l0,-50.5c0,-3.7 3,-6.7 6.7,-6.7l50.5,0c3.7,0 6.7,3 6.7,6.7l0,50.5zm128,0c0,3.7 -3,6.7 -6.7,6.7l-50.5,0c-3.7,0 -6.7,-3 -6.7,-6.7l0,-50.5c0,-3.7 3,-6.7 6.7,-6.7l50.5,0c3.7,0 6.7,3 6.7,6.7l0,50.5zm-256,128c0,3.7 -3,6.7 -6.7,6.7l-50.5,0c-3.7,0 -6.7,-3 -6.7,-6.7l0,-50.5c0,-3.7 3,-6.7 6.7,-6.7l50.5,0c3.7,0 6.7,3 6.7,6.7l0,50.5zm128,0c0,3.7 -3,6.7 -6.7,6.7l-50.5,0c-3.7,0 -6.7,-3 -6.7,-6.7l0,-50.5c0,-3.7 3,-6.7 6.7,-6.7l50.5,0c3.7,0 6.7,3 6.7,6.7l0,50.5zm128,0c0,3.7 -3,6.7 -6.7,6.7l-50.5,0c-3.7,0 -6.7,-3 -6.7,-6.7l0,-50.5c0,-3.7 3,-6.7 6.7,-6.7l50.5,0c3.7,0 6.7,3 6.7,6.7l0,50.5z" fill="#fff" id="svg_1"/>
 </g>
</svg>