<?xml version="1.0"?>
<svg width="32" height="32" xmlns="http://www.w3.org/2000/svg" xmlns:svg="http://www.w3.org/2000/svg">
 <g class="layer">
  <title>Layer 1</title>
  <path d="m32,17.97l0,-4l-4.78,-1.99a10.75,10.75 0 0 0 -0.45,-1.1l1.93,-4.8l-2.82,-2.83l-4.77,1.96a11.15,11.15 0 0 0 -1.11,-0.46l-2.03,-4.75l-4,0l-1.98,4.73c-0.4,0.15 -0.78,0.29 -1.16,0.47l-4.75,-1.91l-2.83,2.83l1.94,4.71c-0.19,0.39 -0.34,0.78 -0.49,1.19l-4.7,2.01l0,4l4.71,1.96c0.14,0.41 0.3,0.8 0.49,1.19l-1.91,4.74l2.83,2.83l4.72,-1.95c0.38,0.18 0.77,0.33 1.17,0.47l2.02,4.73l4,0l1.98,-4.76c0.38,-0.14 0.76,-0.29 1.11,-0.46l4.8,1.92l2.83,-2.82l-1.97,-4.78c0.17,-0.36 0.3,-0.72 0.44,-1.09l4.78,-2.04zm-16.03,4.03c-3.31,0 -6,-2.69 -6,-6s2.69,-6 6,-6s6,2.69 6,6s-2.69,6 -6,6z" fill="#ffffff" id="svg_1"/>
 </g>
</svg>