<?xml version="1.0"?>
<svg width="512" height="512" xmlns="http://www.w3.org/2000/svg" xmlns:svg="http://www.w3.org/2000/svg">
 <g class="layer">
  <title>Layer 1</title>
  <path d="m384.59,394.58c4.99,-0.08 9.91,-2.16 13.44,-5.68l55,-55c3.6,-3.6 5.7,-8.66 5.7,-13.75c0,-5.09 -2.1,-10.15 -5.7,-13.75l-183.28,-183.29c-3.6,-3.6 -8.66,-5.69 -13.75,-5.69c-5.09,0 -10.15,2.09 -13.75,5.69l-183.28,183.28c-3.6,3.61 -5.7,8.67 -5.7,13.75c0,5.1 2.1,10.15 5.7,13.75l55,55c3.6,3.6 8.65,5.69 13.73,5.69s10.14,-2.09 13.74,-5.68l114.56,-114.57l114.56,114.56c3.67,3.67 8.85,5.77 14.03,5.69z" fill="#ffffff" id="svg_1"/>
 </g>
</svg>