<?xml version="1.0"?>
<svg width="24" height="24" xmlns="http://www.w3.org/2000/svg" xmlns:svg="http://www.w3.org/2000/svg">
 <g class="layer">
  <title>Layer 1</title>
  <path d="m12,0c-6.6,0 -12,5.4 -12,12s5.4,12 12,12s12,-5.4 12,-12s-5.4,-12 -12,-12zm9.8,10l-4.1,0c-0.7,-1.7 -2,-3 -3.7,-3.7l0,-4.1c3.9,0.8 7,3.9 7.8,7.8zm0.2,2c0,0.3 0,0.7 -0.1,1l-4,0c0.1,-0.3 0.1,-0.7 0.1,-1s0,-0.7 -0.1,-1l4,0c0.1,0.3 0.1,0.7 0.1,1zm-10,4c-2.2,0 -4,-1.8 -4,-4s1.8,-4 4,-4s4,1.8 4,4s-1.8,4 -4,4zm1,-13.9l0,4c-0.3,-0.1 -0.7,-0.1 -1,-0.1s-0.7,0 -1,0.1l0,-4c0.3,-0.1 0.7,-0.1 1,-0.1s0.7,0 1,0.1zm-3,0.1l0,4.1c-1.7,0.7 -3,2 -3.7,3.7l-4.1,0c0.8,-3.9 3.9,-7 7.8,-7.8zm-3.9,10.8l-4,0c-0.1,-0.3 -0.1,-0.7 -0.1,-1s0,-0.7 0.1,-1l4,0c-0.1,0.3 -0.1,0.7 -0.1,1s0,0.7 0.1,1zm-3.9,1l4.1,0c0.6,1.7 1.9,3 3.7,3.7l0,4.1c-3.9,-0.8 -7,-3.9 -7.8,-7.8zm8.8,7.9l0,-4c0.3,0.1 0.7,0.1 1,0.1s0.7,0 1,-0.1l0,4c-0.3,0 -0.7,0.1 -1,0.1s-0.7,0 -1,-0.1zm3,-0.1l0,-4.1c1.7,-0.6 3,-1.9 3.7,-3.7l4.1,0c-0.8,3.9 -3.9,7 -7.8,7.8z" fill="#fff" id="svg_1"/>
 </g>
</svg>