<?xml version="1.0"?>
<svg width="375.636" height="375.635" xmlns="http://www.w3.org/2000/svg" xmlns:svg="http://www.w3.org/2000/svg">
 <g class="layer">
  <title>Layer 1</title>
  <path d="m41.01,228.82c-22.61,0 -41.01,-18.38 -41.01,-41c0,-22.61 18.4,-41.01 41.01,-41.01c22.62,0 41.02,18.4 41.02,41.01c-0.01,22.62 -18.4,41.01 -41.02,41.01l0,-0.01zm144.5,0c-22.61,0 -41.01,-18.38 -41.01,-41c0,-22.61 18.4,-41.01 41.01,-41.01c22.62,0 41.02,18.4 41.02,41.01c0,22.62 -18.4,41 -41.02,41zm149.11,0c-22.61,0 -41.01,-18.38 -41.01,-41c0,-22.61 18.4,-41.01 41.01,-41.01c22.62,0 41.02,18.4 41.02,41.01c0,22.62 -18.4,41 -41.02,41z" fill="#fff" id="svg_1"/>
 </g>
</svg>